<?xml version="1.0" encoding="utf-8"?>
<!-- Generator: Adobe Illustrator 22.0.1, SVG Export Plug-In . SVG Version: 6.00 Build 0)  -->
<svg version="1.1" id="NOTE_xAE__xA0_Imagen_1_" xmlns="http://www.w3.org/2000/svg" xmlns:xlink="http://www.w3.org/1999/xlink"
	 x="0px" y="0px" viewBox="0 0 900 158" style="enable-background:new 0 0 900 158;" xml:space="preserve">
<style type="text/css">
	.st0{fill:#FFFFFF;}
</style>
<g>
	<path class="st0" d="M23.4,34.5c11.4-14.7,28.4-16.4,43-4.6c31.8,25.9,63.6,51.7,95.4,77.5c1,0.8,2.1,1.5,4,2.8
		c0-29.3,0-57.7,0-86.3c12.4,0,24.1,0,36.4,0c0,2.1,0,3.9,0,5.6c0,31,0,62,0,93c0,11.7-6.2,18.3-17.9,18.9
		c-10.8,0.6-20.7-2.1-29.4-8.9C125,109.4,95.1,86.3,65.3,63.2c-2.2-1.7-4.1-3.7-7-6.2c0,28,0,55,0,82.6c-12,0-23.5,0-34.9,0
		C23.4,104.5,23.4,69.5,23.4,34.5z"/>
	<path class="st0" d="M308.7,139.5c-26.8,0-53.7,0-80.5,0c-10.9,0-16.7-5.7-16.8-16.6c0-26.8,0-53.7,0-80.5c0-12.1,6.6-18.7,19-18.8
		c14.8-0.1,29.7,0,44.5,0c37.3,0,74.6,0,112,0c14.2,0,19.5,5.4,19.5,19.7c0,26,0,52,0,78c0,12.9-5.3,18.1-18.3,18.1
		C361.6,139.5,335.1,139.5,308.7,139.5z M371.5,115.3c0-22.5,0-44.5,0-66.8c-41.4,0-82.5,0-123.7,0c0,22.4,0,44.6,0,66.8
		C289.2,115.3,330.1,115.3,371.5,115.3z"/>
	<path class="st0" d="M521.2,47.9c0,31.1,0,61,0,91.3c-12.1,0-23.9,0-36.2,0c0-30,0-60.1,0-90.7c-23.7,0-46.8,0-70.2,0
		c0-8.4,0-16.3,0-24.5c128.7,0,257.5,0,386.7,0c0,7.7,0,15.4,0,23.9C708.4,47.9,615.2,47.9,521.2,47.9z"/>
	<path class="st0" d="M768.6,69c0.1,1.6,0.3,2.9,0.3,4.2c0,6.5,0,12.9,0,20c-34.6,0-68.8,0-103.2,0c0,7,0,13.4,0,20.4
		c47.4,0,94.6,0,142.2,0c0,8.7,0,17,0,25.6c-59.3,0-118.6,0-178.2,0c0-23.3,0-46.6,0-70.1C675.9,69,721.9,69,768.6,69z"/>
	<g>
		<path class="st0" d="M876.6,44.3c0,15.8-12.4,28.2-28.6,28.2c-16,0-28.7-12.4-28.7-28.2c0-15.5,12.8-27.9,28.7-27.9
			C864.2,16.4,876.6,28.9,876.6,44.3z M826.4,44.3c0,12.4,9.2,22.3,21.8,22.3c12.3,0,21.3-9.9,21.3-22.1c0-12.4-9-22.5-21.4-22.5
			C835.6,22.1,826.4,32.1,826.4,44.3z M843.6,59h-6.5V31.1c2.5-0.5,6.1-0.9,10.7-0.9c5.3,0,7.6,0.9,9.7,2c1.5,1.2,2.7,3.4,2.7,6.1
			c0,3.1-2.4,5.4-5.8,6.5v0.3c2.7,1,4.3,3.1,5.1,6.8c0.9,4.3,1.4,6,2.1,7h-7c-0.8-1-1.4-3.6-2.2-6.8c-0.5-3.1-2.2-4.4-5.8-4.4h-3.1
			V59z M843.8,43.1h3.1c3.6,0,6.5-1.2,6.5-4.1c0-2.5-1.9-4.3-6-4.3c-1.7,0-2.9,0.2-3.6,0.3V43.1z"/>
	</g>
</g>
</svg>
